<?xml version="1.0" encoding="UTF-8"?>
<svg id="Layer_1" xmlns="http://www.w3.org/2000/svg" version="1.1" viewBox="0 0 512 512">
  <!-- Generator: Adobe Illustrator 29.3.0, SVG Export Plug-In . SVG Version: 2.1.0 Build 146)  -->
  <defs>
    <style>
      .st0 {
        stroke: #000;
      }

      .st0, .st1, .st2, .st3, .st4, .st5 {
        fill: none;
      }

      .st0, .st1, .st3, .st4, .st5 {
        stroke-miterlimit: 10;
      }

      .st1 {
        stroke: #ed5160;
        stroke-width: 100px;
      }

      .st6 {
        fill: #008a9e;
      }

      .st7 {
        display: none;
        fill: #687a7b;
      }

      .st3 {
        stroke-width: 25px;
      }

      .st3, .st4, .st5 {
        stroke: #ee4f9c;
      }

      .st4 {
        stroke-width: 22px;
      }

      .st5 {
        stroke-width: 24px;
      }
    </style>
  </defs>
  <rect class="st7" y="0" width="512" height="512"/>
  <g>
    <rect class="st6" x="51.2" y="51.2" width="409.6" height="409.6"/>
    <g>
      <polyline class="st6" points="460.8 445.8 460.8 460.8 445.8 460.8"/>
      <line class="st2" x1="416.6" y1="460.8" x2="80.8" y2="460.8"/>
      <polyline class="st6" points="66.2 460.8 51.2 460.8 51.2 445.8"/>
      <line class="st2" x1="51.2" y1="416.6" x2="51.2" y2="80.8"/>
      <polyline class="st6" points="51.2 66.2 51.2 51.2 66.2 51.2"/>
      <line class="st2" x1="95.4" y1="51.2" x2="431.2" y2="51.2"/>
      <polyline class="st6" points="445.8 51.2 460.8 51.2 460.8 66.2"/>
      <line class="st2" x1="460.8" y1="95.4" x2="460.8" y2="431.2"/>
    </g>
  </g>
  <line class="st0" x1="61.44" y1="256" x2="61.44" y2="256"/>
  <line class="st4" x1="467.85" y1="193.34" x2="348.76" y2="312.43"/>
  <line class="st4" x1="168.7" y1="193.34" x2="49.62" y2="312.43"/>
  <line class="st5" x1="474.73" y1="252.88" x2="46.6" y2="252.88"/>
  <line class="st3" x1="109.16" y1="328.15" x2="109.16" y2="177.62"/>
  <line class="st3" x1="408.31" y1="328.15" x2="408.31" y2="177.62"/>
  <line class="st1" x1="51.2" y1="51.2" x2="460.8" y2="460.8"/>
  <line class="st1" x1="460.8" y1="51.2" x2="51.2" y2="460.8"/>
</svg>
