<?xml version="1.0" encoding="UTF-8"?>
<svg id="Layer_1" xmlns="http://www.w3.org/2000/svg" version="1.1" viewBox="0 0 512 512">
  <!-- Generator: Adobe Illustrator 29.3.0, SVG Export Plug-In . SVG Version: 2.1.0 Build 146)  -->
  <defs>
    <style>
      .st0, .st1, .st2, .st3, .st4, .st5, .st6 {
        stroke-miterlimit: 10;
      }

      .st0, .st2, .st3, .st4, .st5 {
        fill: none;
      }

      .st0, .st6 {
        stroke: #000;
      }

      .st1, .st7 {
        fill: #fff;
      }

      .st1, .st2, .st3 {
        stroke: #ee4f9c;
      }

      .st1, .st4, .st5 {
        stroke-width: 24px;
      }

      .st8 {
        display: none;
        fill: #687a7b;
      }

      .st2 {
        stroke-width: 25px;
      }

      .st3 {
        stroke-width: 22px;
      }

      .st4, .st5 {
        stroke: #a9bfb2;
      }

      .st5 {
        stroke-dasharray: 54.02 54.02;
      }

      .st6 {
        fill: #008a9e;
        stroke-width: .25px;
      }
    </style>
  </defs>
  <rect class="st8" width="512" height="512"/>
  <rect class="st6" x="-419.12" y="18.68" width="365.27" height="409.6"/>
  <circle class="st6" cx="329.11" cy="252.25" r="156.87"/>
  <line class="st0" x1="61.44" y1="256" x2="61.44" y2="256"/>
  <g>
    <line class="st7" x1="114.39" y1="466.95" x2="114.39" y2="38.82"/>
    <g>
      <line class="st4" x1="114.39" y1="466.95" x2="114.39" y2="441.95"/>
      <line class="st5" x1="114.39" y1="387.93" x2="114.39" y2="90.83"/>
      <line class="st4" x1="114.39" y1="63.82" x2="114.39" y2="38.82"/>
    </g>
  </g>
  <g>
    <line class="st7" x1="327.85" y1="466.95" x2="327.85" y2="38.82"/>
    <g>
      <line class="st4" x1="327.85" y1="466.95" x2="327.85" y2="441.95"/>
      <line class="st5" x1="327.85" y1="387.93" x2="327.85" y2="90.83"/>
      <line class="st4" x1="327.85" y1="63.82" x2="327.85" y2="38.82"/>
    </g>
  </g>
  <line class="st3" x1="388.02" y1="193.34" x2="268.94" y2="312.43"/>
  <line class="st3" x1="173.3" y1="193.34" x2="54.21" y2="312.43"/>
  <line class="st1" x1="388.02" y1="252.88" x2="51.2" y2="252.88"/>
  <line class="st2" x1="113.12" y1="327.52" x2="113.12" y2="176.98"/>
  <line class="st2" x1="328.48" y1="328.15" x2="328.48" y2="177.62"/>
</svg>
