<?xml version="1.0" encoding="UTF-8"?>
<svg id="Layer_1" xmlns="http://www.w3.org/2000/svg" version="1.1" viewBox="0 0 512 512">
  <!-- Generator: Adobe Illustrator 29.5.1, SVG Export Plug-In . SVG Version: 2.1.0 Build 141)  -->
  <defs>
    <style>
      .st0 {
        stroke: #058a9e;
        stroke-width: 40px;
      }

      .st0, .st1 {
        stroke-miterlimit: 10;
      }

      .st0, .st1, .st2, .st3 {
        fill: none;
      }

      .st1, .st2 {
        stroke: #a9bfb2;
        stroke-width: 18px;
      }

      .st2 {
        stroke-linecap: square;
        stroke-linejoin: round;
      }

      .st4 {
        display: none;
        fill: #687a7b;
      }
    </style>
  </defs>
  <rect class="st4" y="0" width="512" height="512"/>
  <g>
    <line class="st3" x1="165.15" y1="570.77" x2="560.41" y2="175.51"/>
    <g>
      <path class="st2" d="M188.23,547.69"/>
      <path class="st2" d="M165.15,570.77"/>
      <path class="st2" d="M464.2,271.72"/>
      <line class="st2" x1="266.91" y1="469.02" x2="464.2" y2="271.72"/>
      <path class="st2" d="M266.91,469.02"/>
      <path class="st2" d="M560.41,175.51"/>
      <path class="st2" d="M537.33,198.59"/>
    </g>
    <g>
      <path class="st1" d="M122.26,512.66"/>
      <path class="st1" d="M97.98,536.94"/>
      <line class="st1" x1="451.79" y1="183.13" x2="463.23" y2="171.68"/>
      <line class="st1" x1="182.75" y1="452.16" x2="451.79" y2="183.13"/>
      <line class="st1" x1="174.72" y1="460.2" x2="182.75" y2="452.16"/>
      <path class="st1" d="M513.74,121.18"/>
      <path class="st1" d="M489.46,145.45"/>
    </g>
    <line class="st3" x1="120.63" y1="433.72" x2="423.36" y2="130.99"/>
    <g>
      <path class="st1" d="M84.82,469.53"/>
      <path class="st1" d="M60.41,493.94"/>
      <line class="st1" x1="416.74" y1="137.61" x2="427.68" y2="126.66"/>
      <line class="st1" x1="137.57" y1="416.78" x2="416.74" y2="137.61"/>
      <path class="st1" d="M478.47,75.88"/>
      <path class="st1" d="M454.06,100.29"/>
    </g>
    <line class="st3" x1="74.2" y1="387.3" x2="376.93" y2="84.56"/>
    <g>
      <path class="st1" d="M29.41,432.09"/>
      <path class="st1" d="M3.53,457.97"/>
      <path class="st1" d="M392.91,68.59"/>
      <path class="st1" d="M385.59,75.9"/>
      <path class="st1" d="M376.93,84.56"/>
      <line class="st1" x1="88.36" y1="373.14" x2="376.93" y2="84.56"/>
      <line class="st1" x1="85.34" y1="376.16" x2="88.36" y2="373.14"/>
      <path class="st1" d="M446.75,14.74"/>
      <path class="st1" d="M420.87,40.62"/>
    </g>
    <line class="st3" x1="33.14" y1="344.95" x2="335.88" y2="42.21"/>
    <g>
      <path class="st1" d="M10.31,367.78"/>
      <path class="st1" d="M-11.85,389.94"/>
      <line class="st1" x1="312.28" y1="65.81" x2="321.56" y2="56.53"/>
      <line class="st1" x1="62.15" y1="315.94" x2="312.28" y2="65.81"/>
      <line class="st1" x1="58.2" y1="319.9" x2="62.15" y2="315.94"/>
      <path class="st1" d="M367.66,10.43"/>
      <path class="st1" d="M345.5,32.59"/>
    </g>
    <g>
      <path class="st1" d="M4.39,280.84"/>
      <path class="st1" d="M-13.28,298.52"/>
      <line class="st1" x1="235.92" y1="49.32" x2="252.67" y2="32.56"/>
      <line class="st1" x1="42.59" y1="242.65" x2="235.92" y2="49.32"/>
      <path class="st1" d="M289.45-4.21"/>
      <path class="st1" d="M271.77,13.47"/>
    </g>
  </g>
  <path class="st0" d="M43.92,235.93C54.03,127.7,145.12,42.98,256,42.98c117.65,0,213.02,95.37,213.02,213.02s-95.37,213.02-213.02,213.02S42.98,373.65,42.98,256c0-6.77.32-13.46.93-20.07"/>
  <line class="st3" x1="160.91" y1="474" x2="463.64" y2="171.27"/>
  <line class="st3" x1="-13.28" y1="298.52" x2="289.45" y2="-4.21"/>
</svg>
